<?xml version="1.0" standalone="no"?>
<!DOCTYPE svg PUBLIC "-//W3C//DTD SVG 20010904//EN"
 "http://www.w3.org/TR/2001/REC-SVG-20010904/DTD/svg10.dtd">
<svg version="1.0" xmlns="http://www.w3.org/2000/svg"
 width="260.000000pt" height="260.000000pt" viewBox="0 0 260.000000 260.000000"
 preserveAspectRatio="xMidYMid meet">
<metadata>
Created by potrace 1.11, written by Peter Selinger 2001-2013
</metadata>
<g transform="translate(0.000000,260.000000) scale(0.100000,-0.100000)"
fill="#000000" stroke="none">
<path d="M910 2367 c-3 -3 -30 -7 -60 -10 -167 -18 -401 -111 -543 -215 -66
-49 -138 -129 -163 -179 -39 -82 -25 -244 31 -339 31 -53 116 -140 178 -183
95 -65 281 -138 527 -207 198 -56 313 -121 323 -184 20 -125 -313 -335 -625
-393 -104 -19 -243 -15 -349 12 -124 31 -126 31 -142 13 -20 -23 -37 -78 -37
-118 0 -50 61 -88 199 -124 47 -12 150 -15 216 -5 216 32 391 83 533 156 28
15 52 25 52 23 0 -2 -17 -27 -39 -55 -63 -83 -78 -160 -38 -197 30 -28 74 -28
180 -1 62 17 112 22 207 22 116 0 340 -10 379 -18 9 -1 52 -6 96 -10 75 -6
154 -19 375 -62 69 -14 105 -16 133 -10 46 11 107 66 107 96 0 33 -37 99 -66
118 -28 18 -168 48 -274 59 -35 3 -71 7 -80 9 -8 1 -49 6 -90 9 -41 4 -93 9
-115 11 -119 12 -252 19 -342 18 l-102 0 37 30 c72 58 171 117 356 212 472
241 656 399 727 625 25 81 31 205 14 286 -36 167 -161 299 -341 360 -69 23
-96 27 -204 27 -174 1 -316 -32 -439 -99 -50 -28 -62 -31 -57 -17 12 31 19
110 12 145 -8 42 -68 108 -125 137 -68 35 -197 59 -328 60 -65 1 -121 0 -123
-2z m315 -232 c74 -38 93 -64 101 -142 6 -54 10 -63 26 -63 18 0 18 -2 -6 -30
-31 -37 -50 -101 -41 -140 8 -35 33 -58 82 -75 48 -16 58 -11 143 70 126 121
227 164 389 170 125 4 192 -17 266 -86 65 -60 90 -118 90 -209 0 -67 -4 -84
-34 -144 -73 -143 -229 -263 -596 -456 -66 -35 -159 -87 -206 -115 l-86 -52
28 46 c74 121 51 253 -61 354 -63 57 -203 126 -340 167 -223 67 -407 131 -452
158 -87 51 -165 137 -188 206 -27 85 43 178 200 263 139 76 297 111 490 109
129 -1 138 -2 195 -31z"/>
</g>
</svg>
